<svg width="143" height="48" viewBox="0 0 143 48" fill="none" xmlns="http://www.w3.org/2000/svg">
<path d="M45.7583 40.1566C45.8401 38.8359 45.9228 36.3999 45.9228 34.1292V10.8461H52.1657V22.3639H52.2476C53.4389 20.6302 55.5335 19.5151 58.3261 19.5151C63.1314 19.5151 66.6645 23.5194 66.6228 29.7121C66.6228 36.978 62.0228 40.6106 57.4228 40.6106C55.081 40.6106 52.8228 39.7438 51.3852 37.349H51.3033L51.057 40.1566H45.7583ZM52.1657 31.5699C52.1657 31.9827 52.2066 32.3545 52.2885 32.6843C52.6992 34.3768 54.1368 35.6573 55.9442 35.6573C58.6141 35.6573 60.257 33.593 60.257 29.9596C60.257 26.8221 58.8604 24.3451 55.9442 24.3451C54.2604 24.3451 52.6992 25.6247 52.2885 27.4414C52.2066 27.8131 52.1657 28.1849 52.1657 28.5969V31.5699Z" fill="#1E154A"/>
<path d="M87.3608 33.676C87.3608 36.3184 87.4426 38.4649 87.5252 40.1574H82.1037L81.8165 37.3086H81.693C80.9124 38.5471 79.0231 40.6114 75.409 40.6114C71.3425 40.6114 68.3445 38.052 68.3445 31.8182V19.9698H74.6292V30.8272C74.6292 33.7583 75.5735 35.5338 77.7507 35.5338C79.4756 35.5338 80.4615 34.3364 80.8723 33.3454C81.0367 32.9737 81.0776 32.4786 81.0776 31.9827V19.9698H87.3616V33.676H87.3608Z" fill="#1E154A"/>
<path d="M90.3141 26.4101C90.3141 23.8918 90.2323 21.7454 90.1497 19.9698H95.5712L95.8592 22.7355H95.9827C96.8042 21.4559 98.8571 19.5158 102.185 19.5158C106.292 19.5158 109.373 22.2404 109.373 28.1856V40.1574H103.13V28.9694C103.13 26.3689 102.226 24.5934 99.9666 24.5934C98.2418 24.5934 97.2149 25.7908 96.8042 26.9463C96.6405 27.318 96.5579 27.9373 96.5579 28.5154V40.1574H90.3149V26.4101H90.3141Z" fill="#1E154A"/>
<path d="M131.795 10.8461V34.13C131.795 36.4007 131.876 38.7947 131.958 40.1575H126.414L126.126 37.1853H126.044C124.771 39.4559 122.347 40.6114 119.76 40.6114C114.996 40.6114 111.176 36.5241 111.176 30.2499C111.135 23.4379 115.366 19.5159 120.171 19.5159C122.635 19.5159 124.566 20.3827 125.47 21.7865H125.552V10.8461H131.795ZM125.552 28.5155C125.552 28.1849 125.511 27.7309 125.47 27.4003C125.1 25.7078 123.745 24.3039 121.815 24.3039C118.98 24.3039 117.502 26.8633 117.502 30.0419C117.502 33.4688 119.186 35.6153 121.774 35.6153C123.581 35.6153 125.019 34.3768 125.388 32.6012C125.511 32.1472 125.552 31.6933 125.552 31.157V28.5155H125.552Z" fill="#1E154A"/>
<path d="M134.747 10.8461H140.99V40.1575H134.747V10.8461Z" fill="#1E154A"/>
<path d="M16.8628 33.6777L2.2806 25.4127C0.433856 24.3661 -0.0643322 22.7768 1.03313 21.4342L17.6867 1.04342C18.5106 0.0346814 21.0409 0.0346814 21.8648 1.04342L38.5184 21.4334C39.6158 22.7768 39.1176 24.3653 37.2709 25.4119L22.6887 33.6777C21.0802 34.5897 18.4721 34.5897 16.8628 33.6777Z" fill="#4285F5"/>
<path d="M37.8647 27.0698C37.685 27.2068 37.4884 27.3375 37.271 27.4608L24.3582 34.78C21.8272 36.2145 17.7237 36.2145 15.1935 34.78L2.28067 27.4608C2.06327 27.3375 1.86672 27.2068 1.68702 27.0698L1.03239 27.8713C-0.0650654 29.2146 0.433123 30.8031 2.27987 31.8498L16.8629 40.1156C18.4714 41.0276 21.0795 41.0276 22.688 40.1156L37.2702 31.8498C39.117 30.8031 39.6151 29.2146 38.5177 27.8713L37.8647 27.0698Z" fill="#1C5DBA"/>
<path d="M37.8647 33.4794C37.685 33.6165 37.4884 33.7471 37.271 33.8705L24.3582 41.1896C21.8272 42.6241 17.7237 42.6241 15.1935 41.1896L2.28067 33.8697C2.06327 33.7463 1.86672 33.6157 1.68702 33.4786L1.03239 34.2801C-0.0650654 35.6234 0.433123 37.2119 2.27987 38.2586L16.8629 46.5244C18.4714 47.4364 21.0795 47.4364 22.688 46.5244L37.2702 38.2586C39.117 37.2119 39.6151 35.6234 38.5177 34.2801L37.8647 33.4794Z" fill="#144784"/>
</svg>
